<svg width="177" height="23" viewBox="0 0 177 23" fill="none" xmlns="http://www.w3.org/2000/svg">
<path d="M23.8 67.3C19.2 67.3 14.7667 66.7667 10.5 65.7C6.3 64.5667 2.96667 63.1667 0.5 61.5L5.7 50.3C8.16667 51.8333 11.0667 53.1 14.4 54.1C17.8 55.0333 21.1333 55.5 24.4 55.5C28 55.5 30.5333 55.0667 32 54.2C33.5333 53.3333 34.3 52.1333 34.3 50.6C34.3 49.3333 33.7 48.4 32.5 47.8C31.3667 47.1333 29.8333 46.6333 27.9 46.3C25.9667 45.9667 23.8333 45.6333 21.5 45.3C19.2333 44.9667 16.9333 44.5333 14.6 44C12.2667 43.4 10.1333 42.5333 8.2 41.4C6.26667 40.2667 4.7 38.7333 3.5 36.8C2.36667 34.8667 1.8 32.3667 1.8 29.3C1.8 25.9 2.76667 22.9 4.7 20.3C6.7 17.7 9.56667 15.6667 13.3 14.2C17.0333 12.6667 21.5 11.9 26.7 11.9C30.3667 11.9 34.1 12.3 37.9 13.1C41.7 13.9 44.8667 15.0667 47.4 16.6L42.2 27.7C39.6 26.1667 36.9667 25.1333 34.3 24.6C31.7 24 29.1667 23.7 26.7 23.7C23.2333 23.7 20.7 24.1667 19.1 25.1C17.5 26.0333 16.7 27.2333 16.7 28.7C16.7 30.0333 17.2667 31.0333 18.4 31.7C19.6 32.3667 21.1667 32.9 23.1 33.3C25.0333 33.7 27.1333 34.0667 29.4 34.4C31.7333 34.6667 34.0667 35.1 36.4 35.7C38.7333 36.3 40.8333 37.1667 42.7 38.3C44.6333 39.3667 46.2 40.8667 47.4 42.8C48.6 44.6667 49.2 47.1333 49.2 50.2C49.2 53.5333 48.2 56.5 46.2 59.1C44.2 61.6333 41.3 63.6333 37.5 65.1C33.7667 66.5667 29.2 67.3 23.8 67.3ZM90.625 67.3C86.0917 67.3 82.125 66.3 78.725 64.3C75.325 62.3 72.6583 59.2667 70.725 55.2C68.8583 51.0667 67.925 45.8667 67.925 39.6C67.925 33.2667 68.825 28.0667 70.625 24C72.425 19.9333 75.025 16.9 78.425 14.9C81.825 12.9 85.8917 11.9 90.625 11.9C95.6917 11.9 100.225 13.0667 104.225 15.4C108.292 17.6667 111.492 20.8667 113.825 25C116.225 29.1333 117.425 34 117.425 39.6C117.425 45.2667 116.225 50.1667 113.825 54.3C111.492 58.4333 108.292 61.6333 104.225 63.9C100.225 66.1667 95.6917 67.3 90.625 67.3ZM58.825 85.9V12.7H73.725V23.7L73.425 39.7L74.425 55.6V85.9H58.825ZM87.925 54.5C90.525 54.5 92.825 53.9 94.825 52.7C96.8917 51.5 98.525 49.8 99.725 47.6C100.992 45.3333 101.625 42.6667 101.625 39.6C101.625 36.4667 100.992 33.8 99.725 31.6C98.525 29.4 96.8917 27.7 94.825 26.5C92.825 25.3 90.525 24.7 87.925 24.7C85.325 24.7 82.9917 25.3 80.925 26.5C78.8583 27.7 77.225 29.4 76.025 31.6C74.825 33.8 74.225 36.4667 74.225 39.6C74.225 42.6667 74.825 45.3333 76.025 47.6C77.225 49.8 78.8583 51.5 80.925 52.7C82.9917 53.9 85.325 54.5 87.925 54.5ZM153.468 67.3C147.735 67.3 142.635 66.1 138.168 63.7C133.768 61.3 130.268 58.0333 127.668 53.9C125.135 49.7 123.868 44.9333 123.868 39.6C123.868 34.2 125.135 29.4333 127.668 25.3C130.268 21.1 133.768 17.8333 138.168 15.5C142.635 13.1 147.735 11.9 153.468 11.9C159.135 11.9 164.201 13.1 168.668 15.5C173.135 17.8333 176.635 21.0667 179.168 25.2C181.701 29.3333 182.968 34.1333 182.968 39.6C182.968 44.9333 181.701 49.7 179.168 53.9C176.635 58.0333 173.135 61.3 168.668 63.7C164.201 66.1 159.135 67.3 153.468 67.3ZM153.468 54.5C156.068 54.5 158.401 53.9 160.468 52.7C162.535 51.5 164.168 49.8 165.368 47.6C166.568 45.3333 167.168 42.6667 167.168 39.6C167.168 36.4667 166.568 33.8 165.368 31.6C164.168 29.4 162.535 27.7 160.468 26.5C158.401 25.3 156.068 24.7 153.468 24.7C150.868 24.7 148.535 25.3 146.468 26.5C144.401 27.7 142.735 29.4 141.468 31.6C140.268 33.8 139.668 36.4667 139.668 39.6C139.668 42.6667 140.268 45.3333 141.468 47.6C142.735 49.8 144.401 51.5 146.468 52.7C148.535 53.9 150.868 54.5 153.468 54.5ZM193.395 66.5V12.7H208.295V27.9L206.195 23.5C207.795 19.7 210.362 16.8333 213.895 14.9C217.429 12.9 221.729 11.9 226.795 11.9V26.3C226.129 26.2333 225.529 26.2 224.995 26.2C224.462 26.1333 223.895 26.1 223.295 26.1C219.029 26.1 215.562 27.3333 212.895 29.8C210.295 32.2 208.995 35.9667 208.995 41.1V66.5H193.395ZM259.927 67.3C253.593 67.3 248.66 65.7 245.127 62.5C241.593 59.2333 239.827 54.4 239.827 48V0.799999H255.427V47.8C255.427 50.0667 256.027 51.8333 257.227 53.1C258.427 54.3 260.06 54.9 262.127 54.9C264.593 54.9 266.693 54.2333 268.427 52.9L272.627 63.9C271.027 65.0333 269.093 65.9 266.827 66.5C264.627 67.0333 262.327 67.3 259.927 67.3ZM231.527 25.9V13.9H268.827V25.9H231.527ZM314.084 11.9C318.35 11.9 322.15 12.7667 325.484 14.5C328.884 16.1667 331.55 18.7667 333.484 22.3C335.417 25.7667 336.384 30.2333 336.384 35.7V66.5H320.784V38.1C320.784 33.7667 319.817 30.5667 317.884 28.5C316.017 26.4333 313.35 25.4 309.884 25.4C307.417 25.4 305.184 25.9333 303.184 27C301.25 28 299.717 29.5667 298.584 31.7C297.517 33.8333 296.984 36.5667 296.984 39.9V66.5H281.384V12.7H296.284V27.6L293.484 23.1C295.417 19.5 298.184 16.7333 301.784 14.8C305.384 12.8667 309.484 11.9 314.084 11.9ZM377.615 67.3C371.482 67.3 366.082 66.1 361.415 63.7C356.815 61.3 353.248 58.0333 350.715 53.9C348.182 49.7 346.915 44.9333 346.915 39.6C346.915 34.2 348.148 29.4333 350.615 25.3C353.148 21.1 356.582 17.8333 360.915 15.5C365.248 13.1 370.148 11.9 375.615 11.9C380.882 11.9 385.615 13.0333 389.815 15.3C394.082 17.5 397.448 20.7 399.915 24.9C402.382 29.0333 403.615 34 403.615 39.8C403.615 40.4 403.582 41.1 403.515 41.9C403.448 42.6333 403.382 43.3333 403.315 44H359.615V34.9H395.115L389.115 37.6C389.115 34.8 388.548 32.3667 387.415 30.3C386.282 28.2333 384.715 26.6333 382.715 25.5C380.715 24.3 378.382 23.7 375.715 23.7C373.048 23.7 370.682 24.3 368.615 25.5C366.615 26.6333 365.048 28.2667 363.915 30.4C362.782 32.4667 362.215 34.9333 362.215 37.8V40.2C362.215 43.1333 362.848 45.7333 364.115 48C365.448 50.2 367.282 51.9 369.615 53.1C372.015 54.2333 374.815 54.8 378.015 54.8C380.882 54.8 383.382 54.3667 385.515 53.5C387.715 52.6333 389.715 51.3333 391.515 49.6L399.815 58.6C397.348 61.4 394.248 63.5667 390.515 65.1C386.782 66.5667 382.482 67.3 377.615 67.3ZM436.001 67.3C429.667 67.3 424.734 65.7 421.201 62.5C417.667 59.2333 415.901 54.4 415.901 48V0.799999H431.501V47.8C431.501 50.0667 432.101 51.8333 433.301 53.1C434.501 54.3 436.134 54.9 438.201 54.9C440.667 54.9 442.767 54.2333 444.501 52.9L448.701 63.9C447.101 65.0333 445.167 65.9 442.901 66.5C440.701 67.0333 438.401 67.3 436.001 67.3ZM407.601 25.9V13.9H444.901V25.9H407.601Z" fill="#F4F4F4"/>
<path d="M480.358 67.3C475.291 67.3 470.724 66.1667 466.658 63.9C462.591 61.6333 459.358 58.4333 456.958 54.3C454.624 50.1667 453.458 45.2667 453.458 39.6C453.458 34 454.624 29.1333 456.958 25C459.358 20.8667 462.591 17.6667 466.658 15.4C470.724 13.0667 475.291 11.9 480.358 11.9C485.091 11.9 489.124 12.9 492.458 14.9C495.858 16.9 498.458 19.9333 500.258 24C502.058 28.0667 502.958 33.2667 502.958 39.6C502.958 45.8667 502.024 51.0667 500.158 55.2C498.291 59.2667 495.658 62.3 492.258 64.3C488.858 66.3 484.891 67.3 480.358 67.3ZM483.058 54.5C485.591 54.5 487.891 53.9 489.958 52.7C492.024 51.5 493.658 49.8 494.858 47.6C496.124 45.3333 496.758 42.6667 496.758 39.6C496.758 36.4667 496.124 33.8 494.858 31.6C493.658 29.4 492.024 27.7 489.958 26.5C487.891 25.3 485.591 24.7 483.058 24.7C480.458 24.7 478.124 25.3 476.058 26.5C473.991 27.7 472.324 29.4 471.058 31.6C469.858 33.8 469.258 36.4667 469.258 39.6C469.258 42.6667 469.858 45.3333 471.058 47.6C472.324 49.8 473.991 51.5 476.058 52.7C478.124 53.9 480.458 54.5 483.058 54.5ZM496.458 85.9V55.6L497.458 39.7L497.158 23.7V12.7H512.058V85.9H496.458Z" fill="#E0B20C"/>
</svg>
