<svg width="130" height="22" viewBox="0 0 130 22" fill="none" xmlns="http://www.w3.org/2000/svg">
<g clip-path="url(#clip0_2_9)">
<path d="M5.67228 17.4087C4.55243 17.4087 3.47317 17.2812 2.43446 17.0261C1.41199 16.7551 0.6005 16.4203 0 16.0217L1.26592 13.3435C1.86642 13.7101 2.57242 14.013 3.3839 14.2522C4.21161 14.4753 5.02309 14.5869 5.81835 14.5869C6.69476 14.5869 7.31148 14.4833 7.66854 14.2761C8.04181 14.0688 8.22846 13.7819 8.22846 13.4152C8.22846 13.1123 8.0824 12.8891 7.79026 12.7456C7.51437 12.5862 7.14107 12.4667 6.67041 12.3869C6.19976 12.3072 5.68039 12.2275 5.11236 12.1478C4.56054 12.0681 4.00062 11.9645 3.43258 11.8369C2.86455 11.6935 2.34519 11.4862 1.87453 11.2152C1.40387 10.9442 1.02247 10.5775 0.730337 10.1152C0.454433 9.6529 0.316479 9.05507 0.316479 8.32173C0.316479 7.50869 0.551811 6.7913 1.02247 6.16956C1.50936 5.54782 2.20724 5.0616 3.1161 4.71086C4.02496 4.3442 5.11236 4.16086 6.37828 4.16086C7.27092 4.16086 8.17978 4.25652 9.10487 4.44782C10.03 4.63912 10.8009 4.91812 11.4176 5.28478L10.1517 7.93912C9.51873 7.57247 8.87766 7.32535 8.22846 7.19782C7.59551 7.05434 6.97878 6.9826 6.37828 6.9826C5.53432 6.9826 4.9176 7.0942 4.52809 7.31738C4.13858 7.54057 3.94382 7.82752 3.94382 8.17825C3.94382 8.49709 4.08178 8.73622 4.35768 8.89565C4.64981 9.05507 5.03122 9.1826 5.50187 9.27825C5.97253 9.37391 6.48376 9.4616 7.03558 9.5413C7.60361 9.60507 8.17167 9.70869 8.7397 9.85217C9.30773 9.99565 9.81897 10.2029 10.2734 10.4739C10.7441 10.729 11.1255 11.0877 11.4176 11.55C11.7097 11.9964 11.8558 12.5862 11.8558 13.3196C11.8558 14.1167 11.6124 14.8261 11.1255 15.4478C10.6386 16.0536 9.93258 16.5319 9.00749 16.8826C8.09863 17.2333 6.98689 17.4087 5.67228 17.4087ZM21.9405 17.4087C20.8369 17.4087 19.8713 17.1696 19.0435 16.6913C18.2158 16.213 17.5666 15.4877 17.096 14.5152C16.6415 13.5268 16.4143 12.2833 16.4143 10.7848C16.4143 9.27029 16.6334 8.02681 17.0716 7.05434C17.5098 6.08187 18.1428 5.35652 18.9705 4.87825C19.7982 4.39999 20.7882 4.16086 21.9405 4.16086C23.174 4.16086 24.2776 4.43986 25.2514 4.99782C26.2415 5.53986 27.0205 6.30507 27.5885 7.29347C28.1728 8.28187 28.4649 9.44565 28.4649 10.7848C28.4649 12.1399 28.1728 13.3116 27.5885 14.3C27.0205 15.2884 26.2415 16.0536 25.2514 16.5956C24.2776 17.1377 23.174 17.4087 21.9405 17.4087ZM14.199 21.8565V4.35217H17.8263V6.9826L17.7533 10.8087L17.9967 14.6109V21.8565H14.199ZM21.2832 14.3478C21.9162 14.3478 22.4761 14.2043 22.963 13.9174C23.4661 13.6304 23.8638 13.2239 24.1559 12.6978C24.4643 12.1558 24.6184 11.5181 24.6184 10.7848C24.6184 10.0355 24.4643 9.39782 24.1559 8.87173C23.8638 8.34565 23.4661 7.93912 22.963 7.65217C22.4761 7.36521 21.9162 7.22173 21.2832 7.22173C20.6503 7.22173 20.0822 7.36521 19.5791 7.65217C19.076 7.93912 18.6784 8.34565 18.3862 8.87173C18.0941 9.39782 17.948 10.0355 17.948 10.7848C17.948 11.5181 18.0941 12.1558 18.3862 12.6978C18.6784 13.2239 19.076 13.6304 19.5791 13.9174C20.0822 14.2043 20.6503 14.3478 21.2832 14.3478ZM37.2394 17.4087C35.8437 17.4087 34.6022 17.1217 33.5147 16.5478C32.4435 15.9739 31.5915 15.1927 30.9585 14.2043C30.3419 13.2 30.0334 12.0601 30.0334 10.7848C30.0334 9.49347 30.3419 8.35361 30.9585 7.36521C31.5915 6.36086 32.4435 5.5797 33.5147 5.02173C34.6022 4.44782 35.8437 4.16086 37.2394 4.16086C38.619 4.16086 39.8523 4.44782 40.9398 5.02173C42.0272 5.5797 42.8793 6.3529 43.496 7.3413C44.1126 8.3297 44.421 9.47752 44.421 10.7848C44.421 12.0601 44.1126 13.2 43.496 14.2043C42.8793 15.1927 42.0272 15.9739 40.9398 16.5478C39.8523 17.1217 38.619 17.4087 37.2394 17.4087ZM37.2394 14.3478C37.8724 14.3478 38.4403 14.2043 38.9435 13.9174C39.4467 13.6304 39.8443 13.2239 40.1364 12.6978C40.4285 12.1558 40.5746 11.5181 40.5746 10.7848C40.5746 10.0355 40.4285 9.39782 40.1364 8.87173C39.8443 8.34565 39.4467 7.93912 38.9435 7.65217C38.4403 7.36521 37.8724 7.22173 37.2394 7.22173C36.6064 7.22173 36.0385 7.36521 35.5353 7.65217C35.0321 7.93912 34.6265 8.34565 34.3181 8.87173C34.0259 9.39782 33.8799 10.0355 33.8799 10.7848C33.8799 11.5181 34.0259 12.1558 34.3181 12.6978C34.6265 13.2239 35.0321 13.6304 35.5353 13.9174C36.0385 14.2043 36.6064 14.3478 37.2394 14.3478ZM46.9595 17.2174V4.35217H50.5868V7.98695L50.0756 6.93478C50.4651 6.02608 51.09 5.34057 51.9501 4.87825C52.8104 4.39999 53.8572 4.16086 55.0905 4.16086V7.60434C54.9284 7.58839 54.7823 7.58043 54.6523 7.58043C54.5226 7.56448 54.3846 7.55652 54.2385 7.55652C53.1999 7.55652 52.3559 7.85143 51.7066 8.4413C51.0737 9.01521 50.7572 9.91594 50.7572 11.1435V17.2174H46.9595ZM63.1564 17.4087C61.6144 17.4087 60.4135 17.0261 59.5534 16.2609C58.6931 15.4797 58.2631 14.3239 58.2631 12.7935V1.50652H62.0609V12.7456C62.0609 13.2877 62.2069 13.7101 62.4991 14.013C62.7912 14.3 63.1888 14.4435 63.692 14.4435C64.2923 14.4435 64.8035 14.284 65.2257 13.9652L66.2481 16.5956C65.8586 16.8667 65.3878 17.0739 64.8362 17.2174C64.3006 17.3449 63.7407 17.4087 63.1564 17.4087ZM56.2425 7.50869V4.63912H65.3231V7.50869H56.2425ZM76.3407 4.16086C77.3792 4.16086 78.3043 4.36812 79.116 4.7826C79.9437 5.18116 80.5927 5.8029 81.0635 6.64782C81.5341 7.47681 81.7695 8.54491 81.7695 9.85217V17.2174H77.9718V10.4261C77.9718 9.38986 77.7363 8.62464 77.2658 8.13043C76.8113 7.63622 76.162 7.38912 75.3182 7.38912C74.7176 7.38912 74.174 7.51665 73.6871 7.77173C73.2163 8.01086 72.8431 8.38551 72.5673 8.89565C72.3075 9.40578 72.1778 10.0594 72.1778 10.8565V17.2174H68.38V4.35217H72.0073V7.91521L71.3257 6.83912C71.7963 5.97825 72.4699 5.31665 73.3463 4.85434C74.2227 4.39203 75.2208 4.16086 76.3407 4.16086ZM91.807 17.4087C90.314 17.4087 88.9994 17.1217 87.8632 16.5478C86.7434 15.9739 85.875 15.1927 85.2583 14.2043C84.6417 13.2 84.3332 12.0601 84.3332 10.7848C84.3332 9.49347 84.6334 8.35361 85.234 7.36521C85.8506 6.36086 86.6866 5.5797 87.7415 5.02173C88.7963 4.44782 89.9892 4.16086 91.3201 4.16086C92.6024 4.16086 93.7546 4.43187 94.7771 4.97391C95.8158 5.49999 96.6353 6.26521 97.2359 7.26956C97.8364 8.25796 98.1366 9.44565 98.1366 10.8326C98.1366 10.9761 98.1286 11.1435 98.1123 11.3348C98.096 11.5101 98.0799 11.6775 98.0636 11.8369H87.425V9.66086H96.0673L94.6066 10.3065C94.6066 9.63695 94.4686 9.05507 94.1928 8.56086C93.917 8.06665 93.5355 7.68404 93.0486 7.41304C92.5617 7.12608 91.9937 6.9826 91.3445 6.9826C90.6952 6.9826 90.1192 7.12608 89.616 7.41304C89.1291 7.68404 88.7476 8.07464 88.4718 8.58478C88.196 9.07899 88.058 9.66883 88.058 10.3543V10.9283C88.058 11.6297 88.2121 12.2514 88.5205 12.7935C88.845 13.3196 89.2915 13.7261 89.8595 14.013C90.4437 14.284 91.1254 14.4196 91.9044 14.4196C92.6024 14.4196 93.211 14.3159 93.7302 14.1087C94.2658 13.9014 94.7527 13.5906 95.1909 13.1761L97.2115 15.3283C96.6109 15.9978 95.8563 16.5159 94.9475 16.8826C94.0387 17.2333 92.9919 17.4087 91.807 17.4087ZM106.021 17.4087C104.479 17.4087 103.278 17.0261 102.418 16.2609C101.558 15.4797 101.128 14.3239 101.128 12.7935V1.50652H104.925V12.7456C104.925 13.2877 105.071 13.7101 105.364 14.013C105.656 14.3 106.053 14.4435 106.556 14.4435C107.157 14.4435 107.668 14.284 108.09 13.9652L109.113 16.5956C108.723 16.8667 108.252 17.0739 107.701 17.2174C107.165 17.3449 106.605 17.4087 106.021 17.4087ZM99.107 7.50869V4.63912H108.188V7.50869H99.107Z" fill="#F4F4F4"/>
<path d="M119.765 17.5043C118.434 17.5043 117.193 17.2891 116.04 16.8587C114.904 16.4283 113.914 15.8225 113.07 15.0413C112.243 14.2601 111.593 13.3435 111.123 12.2913C110.668 11.2391 110.441 10.0913 110.441 8.84782C110.441 7.60434 110.668 6.45652 111.123 5.40434C111.593 4.35217 112.251 3.43551 113.095 2.65434C113.938 1.87318 114.929 1.26738 116.065 0.836949C117.201 0.406517 118.434 0.191299 119.765 0.191299C121.112 0.191299 122.346 0.406517 123.465 0.836949C124.601 1.26738 125.583 1.87318 126.411 2.65434C127.255 3.41956 127.912 4.32826 128.383 5.38043C128.854 6.4326 129.089 7.58839 129.089 8.84782C129.089 10.0913 128.854 11.2471 128.383 12.3152C127.912 13.3674 127.255 14.284 126.411 15.0652C125.583 15.8304 124.601 16.4283 123.465 16.8587C122.346 17.2891 121.112 17.5043 119.765 17.5043ZM125.34 21.0674C124.674 21.0674 124.041 20.9956 123.441 20.8522C122.857 20.7087 122.273 20.4775 121.688 20.1587C121.12 19.8399 120.52 19.4094 119.887 18.8674C119.27 18.3253 118.597 17.6558 117.866 16.8587L122.005 15.8304C122.443 16.4203 122.849 16.8906 123.222 17.2413C123.595 17.592 123.952 17.8391 124.293 17.9826C124.65 18.1261 125.024 18.1978 125.413 18.1978C126.452 18.1978 127.377 17.7833 128.188 16.9543L129.941 19.0109C128.789 20.3819 127.255 21.0674 125.34 21.0674ZM119.765 14.2043C120.528 14.2043 121.226 14.0768 121.859 13.8217C122.508 13.5667 123.076 13.2 123.563 12.7217C124.05 12.2435 124.423 11.6775 124.683 11.0239C124.959 10.3543 125.097 9.62899 125.097 8.84782C125.097 8.05073 124.959 7.32535 124.683 6.67173C124.423 6.01812 124.05 5.45217 123.563 4.97391C123.076 4.49565 122.508 4.12899 121.859 3.87391C121.226 3.61883 120.528 3.4913 119.765 3.4913C119.002 3.4913 118.296 3.61883 117.647 3.87391C116.998 4.12899 116.43 4.49565 115.943 4.97391C115.472 5.45217 115.099 6.01812 114.823 6.67173C114.563 7.32535 114.434 8.05073 114.434 8.84782C114.434 9.62899 114.563 10.3543 114.823 11.0239C115.099 11.6775 115.472 12.2435 115.943 12.7217C116.43 13.2 116.998 13.5667 117.647 13.8217C118.296 14.0768 119.002 14.2043 119.765 14.2043Z" fill="#E0B20C"/>
</g>
<defs>
<clipPath id="clip0_2_9">
<rect width="130" height="22" fill="white"/>
</clipPath>
</defs>
</svg>
