<svg width="130" height="22" viewBox="0 0 130 22" fill="none" xmlns="http://www.w3.org/2000/svg">
<g clip-path="url(#clip0_2_5)">
<path d="M6.03119 17.2163C4.8655 17.2163 3.74205 17.0799 2.66082 16.807C1.59649 16.5171 0.751791 16.1589 0.126709 15.7326L1.44445 12.8674C2.06953 13.2597 2.80443 13.5837 3.64913 13.8395C4.51072 14.0783 5.35542 14.1977 6.18324 14.1977C7.09552 14.1977 7.73749 14.0868 8.10917 13.8651C8.49772 13.6434 8.69201 13.3364 8.69201 12.9442C8.69201 12.6201 8.53996 12.3814 8.23587 12.2279C7.94868 12.0574 7.5601 11.9294 7.07018 11.8442C6.58026 11.7589 6.03963 11.6736 5.44835 11.5884C4.87394 11.5031 4.29109 11.3922 3.69981 11.2558C3.10852 11.1023 2.5679 10.8806 2.07798 10.5907C1.58805 10.3008 1.19104 9.90852 0.886943 9.41395C0.599744 8.91939 0.456144 8.27985 0.456144 7.49535C0.456144 6.62558 0.701109 5.85814 1.19104 5.19302C1.69786 4.52791 2.42431 4.00776 3.37037 3.63256C4.31643 3.24032 5.44835 3.04419 6.76609 3.04419C7.69527 3.04419 8.64133 3.14651 9.60429 3.35116C10.5673 3.55581 11.3697 3.85427 12.0117 4.24651L10.694 7.08605C10.0351 6.69381 9.36778 6.42945 8.69201 6.29302C8.03314 6.13953 7.39118 6.06279 6.76609 6.06279C5.88758 6.06279 5.24562 6.18218 4.84016 6.42093C4.4347 6.65968 4.23197 6.96666 4.23197 7.34186C4.23197 7.68294 4.37558 7.93875 4.66277 8.1093C4.96687 8.27985 5.36388 8.41628 5.8538 8.5186C6.34373 8.62093 6.87589 8.71474 7.4503 8.8C8.04158 8.86823 8.63289 8.97907 9.22418 9.13256C9.81546 9.28605 10.3476 9.50776 10.8207 9.79767C11.3106 10.0706 11.7076 10.4543 12.0117 10.9488C12.3158 11.4264 12.4678 12.0574 12.4678 12.8419C12.4678 13.6946 12.2144 14.4535 11.7076 15.1186C11.2008 15.7667 10.4659 16.2783 9.50293 16.6535C8.55687 17.0287 7.39961 17.2163 6.03119 17.2163ZM22.9654 17.2163C21.8166 17.2163 20.8114 16.9605 19.9498 16.4488C19.0882 15.9372 18.4124 15.1612 17.9225 14.1209C17.4495 13.0636 17.213 11.7333 17.213 10.1302C17.213 8.51009 17.441 7.17985 17.8972 6.13953C18.3533 5.09922 19.0122 4.32326 19.8738 3.81163C20.7354 3.3 21.7659 3.04419 22.9654 3.04419C24.2494 3.04419 25.3982 3.34264 26.4118 3.93953C27.4424 4.51939 28.2533 5.33799 28.8445 6.39535C29.4527 7.4527 29.7568 8.69767 29.7568 10.1302C29.7568 11.5799 29.4527 12.8333 28.8445 13.8907C28.2533 14.9481 27.4424 15.7667 26.4118 16.3465C25.3982 16.9264 24.2494 17.2163 22.9654 17.2163ZM14.9069 21.9744V3.24884H18.6828V6.06279L18.6067 10.1558L18.8601 14.2233V21.9744H14.9069ZM22.2812 13.9419C22.9401 13.9419 23.5229 13.7884 24.0297 13.4814C24.5535 13.1744 24.9674 12.7395 25.2714 12.1767C25.5925 11.5969 25.7529 10.9147 25.7529 10.1302C25.7529 9.32869 25.5925 8.64651 25.2714 8.08372C24.9674 7.52093 24.5535 7.08605 24.0297 6.77907C23.5229 6.47209 22.9401 6.3186 22.2812 6.3186C21.6223 6.3186 21.031 6.47209 20.5073 6.77907C19.9836 7.08605 19.5697 7.52093 19.2656 8.08372C18.9615 8.64651 18.8095 9.32869 18.8095 10.1302C18.8095 10.9147 18.9615 11.5969 19.2656 12.1767C19.5697 12.7395 19.9836 13.1744 20.5073 13.4814C21.031 13.7884 21.6223 13.9419 22.2812 13.9419ZM38.8905 17.2163C37.4377 17.2163 36.1453 16.9093 35.0133 16.2953C33.8983 15.6814 33.0114 14.8457 32.3525 13.7884C31.7106 12.714 31.3896 11.4946 31.3896 10.1302C31.3896 8.74884 31.7106 7.52945 32.3525 6.47209C33.0114 5.39767 33.8983 4.56201 35.0133 3.96512C36.1453 3.35116 37.4377 3.04419 38.8905 3.04419C40.3266 3.04419 41.6104 3.35116 42.7424 3.96512C43.8744 4.56201 44.7613 5.38916 45.4032 6.44651C46.0451 7.50387 46.3662 8.73177 46.3662 10.1302C46.3662 11.4946 46.0451 12.714 45.4032 13.7884C44.7613 14.8457 43.8744 15.6814 42.7424 16.2953C41.6104 16.9093 40.3266 17.2163 38.8905 17.2163ZM38.8905 13.9419C39.5494 13.9419 40.1406 13.7884 40.6644 13.4814C41.1882 13.1744 41.602 12.7395 41.9061 12.1767C42.2102 11.5969 42.3623 10.9147 42.3623 10.1302C42.3623 9.32869 42.2102 8.64651 41.9061 8.08372C41.602 7.52093 41.1882 7.08605 40.6644 6.77907C40.1406 6.47209 39.5494 6.3186 38.8905 6.3186C38.2317 6.3186 37.6405 6.47209 37.1167 6.77907C36.5929 7.08605 36.1707 7.52093 35.8496 8.08372C35.5455 8.64651 35.3935 9.32869 35.3935 10.1302C35.3935 10.9147 35.5455 11.5969 35.8496 12.1767C36.1707 12.7395 36.5929 13.1744 37.1167 13.4814C37.6405 13.7884 38.2317 13.9419 38.8905 13.9419ZM49.0085 17.0116V3.24884H52.7843V7.13721L52.2522 6.01163C52.6576 5.03953 53.3081 4.30619 54.2034 3.81163C55.099 3.3 56.1886 3.04419 57.4724 3.04419V6.72791C57.3037 6.71084 57.1516 6.70233 57.0163 6.70233C56.8812 6.68526 56.7375 6.67674 56.5855 6.67674C55.5044 6.67674 54.6259 6.99224 53.95 7.62326C53.2911 8.23721 52.9617 9.20078 52.9617 10.514V17.0116H49.0085ZM65.8684 17.2163C64.2633 17.2163 63.0133 16.807 62.118 15.9884C61.2224 15.1527 60.7749 13.9163 60.7749 12.2791V0.204651H64.7281V12.2279C64.7281 12.8078 64.8801 13.2597 65.1842 13.5837C65.4883 13.8907 65.9022 14.0442 66.426 14.0442C67.0509 14.0442 67.583 13.8736 68.0224 13.5326L69.0868 16.3465C68.6813 16.6364 68.1912 16.8581 67.617 17.0116C67.0595 17.1481 66.4766 17.2163 65.8684 17.2163ZM58.6716 6.62558V3.55581H68.1238V6.62558H58.6716ZM79.5924 3.04419C80.6735 3.04419 81.6365 3.2659 82.4813 3.7093C83.3429 4.13567 84.0185 4.80078 84.5086 5.70465C84.9985 6.59148 85.2435 7.7341 85.2435 9.13256V17.0116H81.2903V9.74651C81.2903 8.63799 81.0453 7.81939 80.5554 7.2907C80.0823 6.76201 79.4064 6.49767 78.5281 6.49767C77.903 6.49767 77.3371 6.6341 76.8303 6.90698C76.3402 7.16279 75.9517 7.56357 75.6646 8.1093C75.3942 8.65503 75.2591 9.35427 75.2591 10.207V17.0116H71.3059V3.24884H75.0817V7.06047L74.3722 5.9093C74.862 4.98837 75.5632 4.28061 76.4755 3.78605C77.3878 3.29148 78.4268 3.04419 79.5924 3.04419ZM95.6919 17.2163C94.1377 17.2163 92.7693 16.9093 91.5867 16.2953C90.421 15.6814 89.517 14.8457 88.8752 13.7884C88.2333 12.714 87.9122 11.4946 87.9122 10.1302C87.9122 8.74884 88.2246 7.52945 88.8498 6.47209C89.4917 5.39767 90.3619 4.56201 91.46 3.96512C92.558 3.35116 93.7997 3.04419 95.1851 3.04419C96.5198 3.04419 97.7192 3.3341 98.7835 3.91395C99.8648 4.47674 100.718 5.29535 101.343 6.36977C101.968 7.42712 102.281 8.69767 102.281 10.1814C102.281 10.3349 102.272 10.514 102.255 10.7186C102.238 10.9062 102.222 11.0853 102.205 11.2558H91.1305V8.92791H100.127L98.6061 9.6186C98.6061 8.90233 98.4625 8.27985 98.1754 7.75116C97.8882 7.22247 97.4911 6.81317 96.9843 6.52326C96.4775 6.21628 95.8863 6.06279 95.2104 6.06279C94.5346 6.06279 93.935 6.21628 93.4112 6.52326C92.9044 6.81317 92.5073 7.23102 92.2202 7.77674C91.9331 8.30543 91.7894 8.93643 91.7894 9.66977V10.2837C91.7894 11.0341 91.9498 11.6992 92.2709 12.2791C92.6087 12.8419 93.0734 13.2767 93.6646 13.5837C94.2728 13.8736 94.9824 14.0186 95.7933 14.0186C96.5198 14.0186 97.1533 13.9078 97.6939 13.686C98.2514 13.4643 98.7582 13.1318 99.2143 12.6884L101.318 14.9907C100.692 15.707 99.9069 16.2612 98.9609 16.6535C98.0149 17.0287 96.9253 17.2163 95.6919 17.2163ZM110.488 17.2163C108.882 17.2163 107.632 16.807 106.737 15.9884C105.842 15.1527 105.394 13.9163 105.394 12.2791V0.204651H109.347V12.2279C109.347 12.8078 109.499 13.2597 109.803 13.5837C110.107 13.8907 110.521 14.0442 111.045 14.0442C111.67 14.0442 112.202 13.8736 112.642 13.5326L113.706 16.3465C113.3 16.6364 112.81 16.8581 112.236 17.0116C111.679 17.1481 111.096 17.2163 110.488 17.2163ZM103.291 6.62558V3.55581H112.743V6.62558H103.291Z" fill="#F4F4F4"/>
<path d="M121.728 17.2163C120.444 17.2163 119.287 16.9264 118.256 16.3465C117.226 15.7667 116.407 14.9481 115.798 13.8907C115.207 12.8333 114.911 11.5799 114.911 10.1302C114.911 8.69768 115.207 7.45271 115.798 6.39535C116.407 5.338 117.226 4.51939 118.256 3.93954C119.287 3.34265 120.444 3.04419 121.728 3.04419C122.928 3.04419 123.95 3.3 124.794 3.81163C125.656 4.32326 126.315 5.09922 126.771 6.13954C127.227 7.17986 127.455 8.51009 127.455 10.1302C127.455 11.7333 127.219 13.0636 126.746 14.1209C126.273 15.1613 125.605 15.9372 124.744 16.4488C123.882 16.9605 122.877 17.2163 121.728 17.2163ZM122.412 13.9419C123.054 13.9419 123.637 13.7884 124.161 13.4814C124.684 13.1744 125.099 12.7395 125.403 12.1767C125.723 11.5969 125.884 10.9147 125.884 10.1302C125.884 9.32869 125.723 8.64652 125.403 8.08372C125.099 7.52093 124.684 7.08605 124.161 6.77907C123.637 6.4721 123.054 6.31861 122.412 6.31861C121.753 6.31861 121.162 6.4721 120.638 6.77907C120.115 7.08605 119.692 7.52093 119.371 8.08372C119.067 8.64652 118.915 9.32869 118.915 10.1302C118.915 10.9147 119.067 11.5969 119.371 12.1767C119.692 12.7395 120.115 13.1744 120.638 13.4814C121.162 13.7884 121.753 13.9419 122.412 13.9419ZM125.808 21.9744V14.2233L126.061 10.1558L125.985 6.06279V3.24884H129.761V21.9744H125.808Z" fill="#E0B20C"/>
</g>
<defs>
<clipPath id="clip0_2_5">
<rect width="130" height="22" fill="white"/>
</clipPath>
</defs>
</svg>
