<svg width="177" height="23" viewBox="0 0 177 23" fill="none" xmlns="http://www.w3.org/2000/svg">
<path d="M10.5227 8.10511L8.21307 8.5142C8.11648 8.21875 7.96307 7.9375 7.75284 7.67045C7.5483 7.40341 7.26989 7.18466 6.91761 7.0142C6.56534 6.84375 6.125 6.75852 5.59659 6.75852C4.875 6.75852 4.27273 6.92045 3.78977 7.24432C3.30682 7.5625 3.06534 7.97443 3.06534 8.48011C3.06534 8.91761 3.22727 9.26989 3.55114 9.53693C3.875 9.80398 4.39773 10.0227 5.11932 10.1932L7.19886 10.6705C8.40341 10.9489 9.30114 11.3778 9.89205 11.9574C10.483 12.5369 10.7784 13.2898 10.7784 14.2159C10.7784 15 10.5511 15.6989 10.0966 16.3125C9.64773 16.9205 9.01989 17.3977 8.21307 17.7443C7.41193 18.0909 6.48295 18.2642 5.42614 18.2642C3.96023 18.2642 2.7642 17.9517 1.83807 17.3267C0.911932 16.696 0.34375 15.8011 0.133523 14.642L2.59659 14.267C2.75 14.9091 3.06534 15.3949 3.54261 15.7244C4.01989 16.0483 4.64205 16.2102 5.40909 16.2102C6.24432 16.2102 6.91193 16.0369 7.41193 15.6903C7.91193 15.3381 8.16193 14.9091 8.16193 14.4034C8.16193 13.9943 8.00852 13.6506 7.7017 13.3722C7.40057 13.0937 6.9375 12.8835 6.3125 12.7415L4.09659 12.2557C2.875 11.9773 1.97159 11.5341 1.38636 10.9261C0.806818 10.3182 0.517045 9.5483 0.517045 8.61648C0.517045 7.84375 0.732955 7.16761 1.16477 6.58807C1.59659 6.00852 2.19318 5.55682 2.95455 5.23295C3.71591 4.90341 4.58807 4.73864 5.57102 4.73864C6.9858 4.73864 8.09943 5.04545 8.91193 5.65909C9.72443 6.26705 10.2614 7.08239 10.5227 8.10511ZM13.5803 22.9091V4.90909H16.0689V7.03125H16.282C16.4297 6.75852 16.6428 6.44318 16.9212 6.08523C17.1996 5.72727 17.5859 5.41477 18.0803 5.14773C18.5746 4.875 19.228 4.73864 20.0405 4.73864C21.0973 4.73864 22.0405 5.00568 22.87 5.53977C23.6996 6.07386 24.3501 6.84375 24.8217 7.84943C25.299 8.85511 25.5376 10.0653 25.5376 11.4801C25.5376 12.8949 25.3018 14.108 24.8303 15.1193C24.3587 16.125 23.7109 16.9006 22.8871 17.446C22.0632 17.9858 21.1229 18.2557 20.0661 18.2557C19.2706 18.2557 18.62 18.1222 18.1143 17.8551C17.6143 17.5881 17.2223 17.2756 16.9382 16.9176C16.6541 16.5597 16.4354 16.2415 16.282 15.9631H16.1286V22.9091H13.5803ZM16.0774 11.4545C16.0774 12.375 16.2109 13.1818 16.478 13.875C16.745 14.5682 17.1314 15.1108 17.6371 15.5028C18.1428 15.8892 18.7621 16.0824 19.495 16.0824C20.2564 16.0824 20.8928 15.8807 21.4041 15.4773C21.9155 15.0682 22.3018 14.5142 22.5632 13.8153C22.8303 13.1165 22.9638 12.3295 22.9638 11.4545C22.9638 10.5909 22.8331 9.81534 22.5717 9.12784C22.3161 8.44034 21.9297 7.89773 21.4126 7.5C20.9013 7.10227 20.2621 6.90341 19.495 6.90341C18.7564 6.90341 18.1314 7.09375 17.62 7.47443C17.1143 7.85511 16.7308 8.38636 16.4695 9.06818C16.2081 9.75 16.0774 10.5455 16.0774 11.4545ZM33.907 18.2642C32.6797 18.2642 31.6087 17.983 30.6939 17.4205C29.7791 16.858 29.0689 16.071 28.5632 15.0597C28.0575 14.0483 27.8047 12.8665 27.8047 11.5142C27.8047 10.1562 28.0575 8.96875 28.5632 7.9517C29.0689 6.93466 29.7791 6.14489 30.6939 5.58239C31.6087 5.01989 32.6797 4.73864 33.907 4.73864C35.1342 4.73864 36.2053 5.01989 37.12 5.58239C38.0348 6.14489 38.745 6.93466 39.2507 7.9517C39.7564 8.96875 40.0092 10.1562 40.0092 11.5142C40.0092 12.8665 39.7564 14.0483 39.2507 15.0597C38.745 16.071 38.0348 16.858 37.12 17.4205C36.2053 17.983 35.1342 18.2642 33.907 18.2642ZM33.9155 16.125C34.7109 16.125 35.37 15.9148 35.8928 15.4943C36.4155 15.0739 36.8018 14.5142 37.0518 13.8153C37.3075 13.1165 37.4354 12.3466 37.4354 11.5057C37.4354 10.6705 37.3075 9.90341 37.0518 9.20455C36.8018 8.5 36.4155 7.93466 35.8928 7.50852C35.37 7.08239 34.7109 6.86932 33.9155 6.86932C33.1143 6.86932 32.4496 7.08239 31.9212 7.50852C31.3984 7.93466 31.0092 8.5 30.7536 9.20455C30.5036 9.90341 30.3786 10.6705 30.3786 11.5057C30.3786 12.3466 30.5036 13.1165 30.7536 13.8153C31.0092 14.5142 31.3984 15.0739 31.9212 15.4943C32.4496 15.9148 33.1143 16.125 33.9155 16.125ZM42.8537 18V4.90909H45.3168V6.98864H45.4531C45.6918 6.28409 46.1122 5.73011 46.7145 5.3267C47.3224 4.91761 48.0099 4.71307 48.777 4.71307C48.9361 4.71307 49.1236 4.71875 49.3395 4.73011C49.5611 4.74148 49.7344 4.75568 49.8594 4.77273V7.21023C49.7571 7.18182 49.5753 7.15057 49.3139 7.11648C49.0526 7.0767 48.7912 7.05682 48.5298 7.05682C47.9276 7.05682 47.3906 7.18466 46.919 7.44034C46.4531 7.69034 46.0838 8.03977 45.8111 8.48864C45.5384 8.93182 45.402 9.4375 45.402 10.0057V18H42.8537ZM58.9489 4.90909V6.95455H51.7983V4.90909H58.9489ZM53.7159 1.77273H56.2642V14.1562C56.2642 14.6506 56.3381 15.0227 56.4858 15.2727C56.6335 15.517 56.8239 15.6847 57.0568 15.7756C57.2955 15.8608 57.554 15.9034 57.8324 15.9034C58.0369 15.9034 58.2159 15.8892 58.3693 15.8608C58.5227 15.8324 58.642 15.8097 58.7273 15.7926L59.1875 17.8977C59.0398 17.9545 58.8295 18.0114 58.5568 18.0682C58.2841 18.1307 57.9432 18.1648 57.5341 18.1705C56.8636 18.1818 56.2386 18.0625 55.6591 17.8125C55.0795 17.5625 54.6108 17.1761 54.2528 16.6534C53.8949 16.1307 53.7159 15.4744 53.7159 14.6847V1.77273ZM64.3161 10.2273V18H61.7678V4.90909H64.2138V7.03977H64.3757C64.6768 6.34659 65.1484 5.78977 65.7905 5.36932C66.4382 4.94886 67.2536 4.73864 68.2365 4.73864C69.1286 4.73864 69.9098 4.92614 70.5803 5.30114C71.2507 5.67045 71.7706 6.22159 72.1399 6.95455C72.5092 7.6875 72.6939 8.59375 72.6939 9.6733V18H70.1456V9.98011C70.1456 9.03125 69.8984 8.28977 69.4041 7.75568C68.9098 7.21591 68.2308 6.94602 67.3672 6.94602C66.7763 6.94602 66.2507 7.07386 65.7905 7.32955C65.3359 7.58523 64.9751 7.96023 64.7081 8.45455C64.4467 8.94318 64.3161 9.53409 64.3161 10.2273ZM81.7536 18.2642C80.4638 18.2642 79.353 17.9886 78.4212 17.4375C77.495 16.8807 76.7791 16.0994 76.2734 15.0938C75.7734 14.0824 75.5234 12.8977 75.5234 11.5398C75.5234 10.1989 75.7734 9.01705 76.2734 7.99432C76.7791 6.97159 77.4837 6.1733 78.3871 5.59943C79.2962 5.02557 80.3587 4.73864 81.5746 4.73864C82.3132 4.73864 83.0291 4.8608 83.7223 5.10511C84.4155 5.34943 85.0376 5.73295 85.5888 6.25568C86.1399 6.77841 86.5746 7.45739 86.8928 8.29261C87.2109 9.12216 87.37 10.1307 87.37 11.3182V12.2216H76.9638V10.3125H84.8729C84.8729 9.64205 84.7365 9.0483 84.4638 8.53125C84.1911 8.00852 83.8075 7.59659 83.3132 7.29545C82.8246 6.99432 82.2507 6.84375 81.5916 6.84375C80.8757 6.84375 80.2507 7.01989 79.7166 7.37216C79.1882 7.71875 78.7791 8.1733 78.4893 8.7358C78.2053 9.29261 78.0632 9.89773 78.0632 10.5511V12.0426C78.0632 12.9176 78.2166 13.6619 78.5234 14.2756C78.8359 14.8892 79.2706 15.358 79.8274 15.6818C80.3842 16 81.0348 16.1591 81.7791 16.1591C82.2621 16.1591 82.7024 16.0909 83.1001 15.9545C83.4979 15.8125 83.8416 15.6023 84.1314 15.3239C84.4212 15.0455 84.6428 14.7017 84.7962 14.2926L87.2081 14.7273C87.0149 15.4375 86.6683 16.0597 86.1683 16.5938C85.674 17.1222 85.0518 17.5341 84.3018 17.8295C83.5575 18.1193 82.7081 18.2642 81.7536 18.2642ZM96.3082 4.90909V6.95455H89.1577V4.90909H96.3082ZM91.0753 1.77273H93.6236V14.1562C93.6236 14.6506 93.6974 15.0227 93.8452 15.2727C93.9929 15.517 94.1832 15.6847 94.4162 15.7756C94.6548 15.8608 94.9134 15.9034 95.1918 15.9034C95.3963 15.9034 95.5753 15.8892 95.7287 15.8608C95.8821 15.8324 96.0014 15.8097 96.0866 15.7926L96.5469 17.8977C96.3991 17.9545 96.1889 18.0114 95.9162 18.0682C95.6435 18.1307 95.3026 18.1648 94.8935 18.1705C94.223 18.1818 93.598 18.0625 93.0185 17.8125C92.4389 17.5625 91.9702 17.1761 91.6122 16.6534C91.2543 16.1307 91.0753 15.4744 91.0753 14.6847V1.77273ZM125.72 18.1619C125.254 18.1619 124.854 17.9972 124.518 17.6676C124.183 17.3324 124.016 16.929 124.016 16.4574C124.016 15.9915 124.183 15.5937 124.518 15.2642C124.854 14.929 125.254 14.7614 125.72 14.7614C126.186 14.7614 126.587 14.929 126.922 15.2642C127.257 15.5937 127.425 15.9915 127.425 16.4574C127.425 16.7699 127.345 17.0568 127.186 17.3182C127.033 17.5739 126.828 17.7784 126.572 17.9318C126.317 18.0852 126.033 18.1619 125.72 18.1619ZM136.352 18.2642C135.085 18.2642 133.994 17.9773 133.08 17.4034C132.17 16.8239 131.472 16.0256 130.983 15.0085C130.494 13.9915 130.25 12.8267 130.25 11.5142C130.25 10.1847 130.5 9.01136 131 7.99432C131.5 6.97159 132.205 6.1733 133.114 5.59943C134.023 5.02557 135.094 4.73864 136.327 4.73864C137.321 4.73864 138.207 4.9233 138.986 5.29261C139.764 5.65625 140.392 6.16761 140.869 6.8267C141.352 7.4858 141.639 8.25568 141.73 9.13636H139.25C139.114 8.52273 138.801 7.99432 138.312 7.55114C137.83 7.10795 137.182 6.88636 136.369 6.88636C135.659 6.88636 135.037 7.07386 134.503 7.44886C133.974 7.81818 133.563 8.34659 133.267 9.03409C132.972 9.71591 132.824 10.5227 132.824 11.4545C132.824 12.4091 132.969 13.233 133.259 13.9261C133.548 14.6193 133.957 15.1562 134.486 15.5369C135.02 15.9176 135.648 16.108 136.369 16.108C136.852 16.108 137.29 16.0199 137.682 15.8438C138.08 15.6619 138.412 15.4034 138.679 15.0682C138.952 14.733 139.142 14.3295 139.25 13.858H141.73C141.639 14.7045 141.364 15.4602 140.903 16.125C140.443 16.7898 139.827 17.3125 139.054 17.6932C138.287 18.0739 137.386 18.2642 136.352 18.2642ZM149.969 18.2642C148.742 18.2642 147.671 17.983 146.756 17.4205C145.842 16.858 145.131 16.071 144.626 15.0597C144.12 14.0483 143.867 12.8665 143.867 11.5142C143.867 10.1562 144.12 8.96875 144.626 7.9517C145.131 6.93466 145.842 6.14489 146.756 5.58239C147.671 5.01989 148.742 4.73864 149.969 4.73864C151.197 4.73864 152.268 5.01989 153.183 5.58239C154.097 6.14489 154.808 6.93466 155.313 7.9517C155.819 8.96875 156.072 10.1562 156.072 11.5142C156.072 12.8665 155.819 14.0483 155.313 15.0597C154.808 16.071 154.097 16.858 153.183 17.4205C152.268 17.983 151.197 18.2642 149.969 18.2642ZM149.978 16.125C150.773 16.125 151.433 15.9148 151.955 15.4943C152.478 15.0739 152.864 14.5142 153.114 13.8153C153.37 13.1165 153.498 12.3466 153.498 11.5057C153.498 10.6705 153.37 9.90341 153.114 9.20455C152.864 8.5 152.478 7.93466 151.955 7.50852C151.433 7.08239 150.773 6.86932 149.978 6.86932C149.177 6.86932 148.512 7.08239 147.984 7.50852C147.461 7.93466 147.072 8.5 146.816 9.20455C146.566 9.90341 146.441 10.6705 146.441 11.5057C146.441 12.3466 146.566 13.1165 146.816 13.8153C147.072 14.5142 147.461 15.0739 147.984 15.4943C148.512 15.9148 149.177 16.125 149.978 16.125ZM158.916 18V4.90909H161.362V7.03977H161.524C161.797 6.31818 162.243 5.75568 162.862 5.35227C163.482 4.94318 164.223 4.73864 165.087 4.73864C165.962 4.73864 166.695 4.94318 167.286 5.35227C167.882 5.76136 168.322 6.32386 168.607 7.03977H168.743C169.055 6.34091 169.553 5.78409 170.234 5.36932C170.916 4.94886 171.729 4.73864 172.672 4.73864C173.859 4.73864 174.828 5.1108 175.578 5.85511C176.334 6.59943 176.712 7.72159 176.712 9.22159V18H174.163V9.46023C174.163 8.57386 173.922 7.93182 173.439 7.53409C172.956 7.13636 172.379 6.9375 171.709 6.9375C170.879 6.9375 170.234 7.19318 169.774 7.70455C169.314 8.21023 169.084 8.8608 169.084 9.65625V18H166.544V9.2983C166.544 8.58807 166.322 8.01705 165.879 7.58523C165.436 7.15341 164.859 6.9375 164.149 6.9375C163.666 6.9375 163.22 7.06534 162.811 7.32102C162.408 7.57102 162.081 7.92045 161.831 8.36932C161.587 8.81818 161.464 9.33807 161.464 9.92898V18H158.916Z" fill="white"/>
<path d="M101.965 0.545454V18H99.3317V0.545454H101.965ZM112.218 12.3409H114.809L116.633 14.7188L117.494 15.7756L120.4 19.5682H117.707L115.763 17.0369L115.099 16.1165L112.218 12.3409ZM120.962 9.27273C120.962 11.1364 120.621 12.7386 119.94 14.0795C119.258 15.4148 118.323 16.4432 117.136 17.1648C115.954 17.8807 114.61 18.2386 113.104 18.2386C111.593 18.2386 110.244 17.8807 109.056 17.1648C107.874 16.4432 106.942 15.4119 106.261 14.071C105.579 12.7301 105.238 11.1307 105.238 9.27273C105.238 7.40909 105.579 5.80966 106.261 4.47443C106.942 3.13352 107.874 2.10511 109.056 1.3892C110.244 0.667613 111.593 0.306818 113.104 0.306818C114.61 0.306818 115.954 0.667613 117.136 1.3892C118.323 2.10511 119.258 3.13352 119.94 4.47443C120.621 5.80966 120.962 7.40909 120.962 9.27273ZM118.354 9.27273C118.354 7.85227 118.124 6.65625 117.664 5.68466C117.21 4.70739 116.585 3.96875 115.789 3.46875C114.999 2.96307 114.104 2.71023 113.104 2.71023C112.099 2.71023 111.201 2.96307 110.411 3.46875C109.621 3.96875 108.996 4.70739 108.536 5.68466C108.082 6.65625 107.854 7.85227 107.854 9.27273C107.854 10.6932 108.082 11.892 108.536 12.8693C108.996 13.8409 109.621 14.5795 110.411 15.0852C111.201 15.5852 112.099 15.8352 113.104 15.8352C114.104 15.8352 114.999 15.5852 115.789 15.0852C116.585 14.5795 117.21 13.8409 117.664 12.8693C118.124 11.892 118.354 10.6932 118.354 9.27273Z" fill="#FBCD44"/>
</svg>
